<?xml version="1.0" encoding="UTF-8" standalone="no"?>
<svg width="201px" height="68px" viewBox="0 0 201 68" version="1.1" xmlns="http://www.w3.org/2000/svg" xmlns:xlink="http://www.w3.org/1999/xlink">
    <!-- Generator: Sketch 40 (33762) - http://www.bohemiancoding.com/sketch -->
    <title>evcard icon</title>
    <desc>Created with Sketch.</desc>
    <defs>
        <linearGradient x1="93.3134512%" y1="50%" x2="0%" y2="50%" id="linearGradient-1">
            <stop stop-color="#87FCF4" stop-opacity="0.0728317482" offset="0%"></stop>
            <stop stop-color="#0A1014" offset="100%"></stop>
        </linearGradient>
        <polygon id="path-2" points="4.8684897 6.53520699 110.566282 6.53520699 110.566282 30.512002 104.139015 36.0741925 4.8684897 36.0741925 0.0634478662 36.0741925 4.8684897 30.6385468"></polygon>
        <filter x="-50%" y="-50%" width="200%" height="200%" filterUnits="objectBoundingBox" id="filter-3">
            <feOffset dx="0" dy="0" in="SourceAlpha" result="shadowOffsetOuter1"></feOffset>
            <feGaussianBlur stdDeviation="9.5" in="shadowOffsetOuter1" result="shadowBlurOuter1"></feGaussianBlur>
            <feColorMatrix values="0 0 0 0 0.309803922   0 0 0 0 0.968627451   0 0 0 0 0.898039216  0 0 0 0.483978714 0" type="matrix" in="shadowBlurOuter1"></feColorMatrix>
        </filter>
    </defs>
    <g id="18f" stroke="none" stroke-width="1" fill="none" fill-rule="evenodd">
        <g id="地图2" transform="translate(-5.000000, -11.000000)">
            <g id="地图" transform="translate(-207.000000, -0.196759)">
                <g id="evcard-icon" transform="translate(212.002579, 23.982277)">
                    <g id="箭头" transform="translate(0.000000, 14.000000)">
                        <path d="M0.927004739,11.6002691 L84.2075794,11.6002691" id="Path-10" stroke="url(#linearGradient-1)"></path>
                        <path d="M20.9270047,14.6002691 L104.207579,14.6002691" id="Path-10" stroke="url(#linearGradient-1)" opacity="0.409048507"></path>
                        <path d="M10.9270047,5.60026911 L114.207579,5.60026911" id="Path-10" stroke="url(#linearGradient-1)"></path>
                        <path d="M27.9270047,3.60026911 L131.207579,3.60026911" id="Path-10" stroke="url(#linearGradient-1)"></path>
                        <polyline id="Path-8" stroke="#2F8D85" stroke-width="4" transform="translate(34.468373, 8.659140) rotate(-45.000000) translate(-34.468373, -8.659140) " points="40.094843 2.98377453 40.094843 14.3345049 28.8419026 14.2860615"></polyline>
                        <polyline id="Path-8" stroke="#4FF7E5" stroke-width="4" transform="translate(51.468373, 8.659140) rotate(-45.000000) translate(-51.468373, -8.659140) " points="57.094843 2.98377453 57.094843 14.3345049 45.8419026 14.2860615"></polyline>
                    </g>
                    <g id="evcard" transform="translate(71.718141, 0.096615)">
                        <rect id="Rectangle-13" fill="#4FF7E5" x="106.956962" y="0" width="8.33430869" height="2.7781029"></rect>
                        <rect id="Rectangle-13" fill="#4FF7E5" transform="translate(115.291270, 4.167154) rotate(90.000000) translate(-115.291270, -4.167154) " x="111.124116" y="2.7781029" width="8.33430869" height="2.7781029"></rect>
                        <rect id="Rectangle-12" fill="#4FF7E5" x="77.7731808" y="1.04178859" width="37.5180894" height="0.347262862"></rect>
                        <rect id="Rectangle-12" fill="#4FF7E5" transform="translate(114.791270, 11.313930) rotate(90.000000) translate(-114.791270, -11.313930) " x="106.311217" y="10.8139301" width="16.9601061" height="0.347262862"></rect>
                        <g id="Rectangle-10">
                            <use fill="black" fill-opacity="1" filter="url(#filter-3)" xlink:href="#path-2"></use>
                            <use fill="#4FF7E5" fill-rule="evenodd" xlink:href="#path-2"></use>
                        </g>
                        <path d="M14.6544928,12.2097622 L14.6544928,27.0865033 L25.7391233,27.0865033 L25.7391233,25.0029261 L17.0922781,25.0029261 L17.0922781,20.5023994 L24.8848567,20.5023994 L24.8848567,18.4188222 L17.0922781,18.4188222 L17.0922781,14.2933394 L25.3849152,14.2933394 L25.3849152,12.2097622 L14.6544928,12.2097622 Z M27.4789103,12.2097622 L32.7711963,27.0865033 L35.7090401,27.0865033 L41.0013261,12.2097622 L38.3551831,12.2097622 L34.2713718,24.3361814 L34.2088645,24.3361814 L30.1250533,12.2097622 L27.4789103,12.2097622 Z M49.8252754,11.9180614 C47.4499974,11.9180614 45.6372853,12.688985 44.387139,14.2725036 C43.2828431,15.6476646 42.741113,17.4603767 42.741113,19.6689685 C42.741113,21.9192319 43.2620073,23.7111082 44.3246317,25.0445976 C45.5331065,26.5864447 47.3874901,27.3782041 49.866947,27.3782041 C51.4713014,27.3782041 52.8464623,26.9198171 53.9924298,26.0030431 C55.2217403,25.0237618 55.9926639,23.6694367 56.3260362,21.9192319 L53.9507582,21.9192319 C53.6590574,23.0443635 53.1589989,23.8986302 52.4505827,24.461196 C51.783838,24.9612545 50.9087356,25.2321196 49.8461112,25.2321196 C48.220921,25.2321196 47.0124462,24.7112253 46.2415227,23.7111082 C45.5331065,22.7734985 45.1788983,21.4191733 45.1788983,19.6689685 C45.1788983,17.9604352 45.5331065,16.6269458 46.2623585,15.6685003 C47.0541178,14.5850402 48.220921,14.0641459 49.7836039,14.0641459 C50.8253925,14.0641459 51.6796591,14.2725036 52.3464038,14.7308906 C53.0339843,15.1892776 53.4923713,15.8976938 53.7424005,16.8769751 L56.1176785,16.8769751 C55.888485,15.3767995 55.2425761,14.1683248 54.1591159,13.2932224 C53.0339843,12.3764484 51.5754803,11.9180614 49.8252754,11.9180614 L49.8252754,11.9180614 Z M63.64981,12.2097622 L57.9616443,27.0865033 L60.5661157,27.0865033 L61.9204409,23.3569001 L68.1503366,23.3569001 L69.5046618,27.0865033 L72.1091333,27.0865033 L66.4209676,12.2097622 L63.64981,12.2097622 Z M62.6496929,21.356666 L65.0041351,14.8350695 L65.0874782,14.8350695 L67.4210846,21.356666 L62.6496929,21.356666 Z M74.3698145,12.2097622 L74.3698145,27.0865033 L76.8075998,27.0865033 L76.8075998,21.0232937 L80.6622175,21.0232937 C81.4956484,21.0232937 82.1415573,21.1899799 82.5791085,21.5650237 C82.995824,21.9192319 83.2458532,22.5026335 83.3291963,23.3152286 L83.5167183,25.1487765 C83.6000614,25.9822073 83.8084191,26.6281163 84.1626272,27.0865033 L86.8087702,27.0865033 C86.3087117,26.5447732 85.9961751,25.8155212 85.912832,24.8987472 L85.6628028,22.5026335 C85.4961166,21.0441294 84.7668646,20.1898628 83.4750467,19.898162 L83.4750467,19.8564905 C84.2668061,19.6481327 84.912715,19.2105815 85.371102,18.5438368 C85.7878174,17.9395995 85.9961751,17.252019 85.9961751,16.4810954 C85.9961751,15.064263 85.5169524,13.9808028 84.6001784,13.230715 C83.725076,12.5431346 82.5166012,12.2097622 80.9955899,12.2097622 L74.3698145,12.2097622 Z M76.8075998,14.2933394 L80.6622175,14.2933394 C81.6623346,14.2933394 82.3915866,14.4600256 82.8499736,14.8350695 C83.3083606,15.1892776 83.537554,15.7726792 83.537554,16.5852743 C83.537554,17.3353621 83.3083606,17.9187637 82.8499736,18.3354791 C82.3499151,18.7313588 81.620663,18.9397165 80.6622175,18.9397165 L76.8075998,18.9397165 L76.8075998,14.2933394 Z M89.6945246,12.2097622 L89.6945246,27.0865033 L95.132661,27.0865033 C97.5496105,27.0865033 99.3623227,26.4197586 100.612469,25.0862692 C101.800108,23.8152871 102.404345,22.0025749 102.404345,19.6481327 C102.404345,17.2728548 101.800108,15.4601426 100.612469,14.2099963 C99.3623227,12.8765069 97.5496105,12.2097622 95.132661,12.2097622 L89.6945246,12.2097622 Z M92.1323099,14.2933394 L94.674274,14.2933394 C96.5286577,14.2933394 97.8829829,14.7100548 98.7372495,15.5643215 C99.5706804,16.3977524 99.9873958,17.7729133 99.9873958,19.6481327 C99.9873958,21.4816807 99.5706804,22.8360058 98.7372495,23.7111082 C97.8829829,24.5653749 96.5286577,25.0029261 94.674274,25.0029261 L92.1323099,25.0029261 L92.1323099,14.2933394 Z" id="EVCARD" stroke="#0A0F13" fill="#0A0F13"></path>
                        <polyline id="Path-5" stroke="#0A0F13" points="110.655003 26.4315744 106.163948 26.4315744 100.950317 31.943877 23.148852 31.943877 18.5673411 36.5253879"></polyline>
                        <polyline id="Path-7" stroke="#0A0F13" points="4.4665094 30.1654994 7.45415663 26.4405665 7.45415663 15.4679905 4.70805438 12.5923576"></polyline>
                    </g>
                </g>
            </g>
        </g>
    </g>
</svg>